<?xml version="1.0" encoding="UTF-8" standalone="no"?>
<!DOCTYPE svg PUBLIC "-//W3C//DTD SVG 1.1//EN"
 "http://www.w3.org/Graphics/SVG/1.1/DTD/svg11.dtd">
<!-- Generated by graphviz version 2.40.1 (20161225.0304)
 -->
<!-- Title: G Pages: 1 -->
<svg width="329pt" height="300pt"
 viewBox="0.00 0.00 329.22 300.40" xmlns="http://www.w3.org/2000/svg" xmlns:xlink="http://www.w3.org/1999/xlink">
<g id="graph0" class="graph" transform="scale(1 1) rotate(0) translate(4 296.4)">
<title>G</title>
<polygon fill="#ffffff" stroke="transparent" points="-4,4 -4,-296.4 325.2246,-296.4 325.2246,4 -4,4"/>
<!-- Developer -->
<g id="node1" class="node">
<title>Developer</title>
<polygon fill="none" stroke="#000000" stroke-width="2" points="317.201,-262.9442 317.201,-277.8558 284.7186,-288.4 238.7814,-288.4 206.299,-277.8558 206.299,-262.9442 238.7814,-252.4 284.7186,-252.4 317.201,-262.9442"/>
<polygon fill="none" stroke="#000000" stroke-width="2" points="321.1993,-260.0367 321.1993,-280.7633 285.351,-292.4 238.149,-292.4 202.3007,-280.7633 202.3007,-260.0367 238.149,-248.4 285.351,-248.4 321.1993,-260.0367"/>
<text text-anchor="middle" x="261.75" y="-266.2" font-family="Times,serif" font-size="14.00" fill="#000000">Developer</text>
</g>
<!-- TFReference -->
<g id="node3" class="node">
<title>TFReference</title>
<ellipse fill="none" stroke="#000000" cx="136.75" cy="-186" rx="47.7559" ry="18"/>
<text text-anchor="middle" x="136.75" y="-183.6" font-family="Times,serif" font-size="8.00" fill="#000000">Translation file Keys</text>
</g>
<!-- Developer&#45;&gt;TFReference -->
<g id="edge1" class="edge">
<title>Developer&#45;&gt;TFReference</title>
<path fill="none" stroke="#000000" d="M227.5153,-251.542C216.4596,-245.1361 204.2763,-237.7363 193.4842,-230.4 183.7433,-223.7783 173.4917,-216.0201 164.4232,-208.8576"/>
<polygon fill="#000000" stroke="#000000" points="166.4706,-206.0132 156.4763,-202.4969 162.0964,-211.4783 166.4706,-206.0132"/>
<text text-anchor="middle" x="202.8829" y="-224.1" font-family="Times,serif" font-size="7.00" fill="#000000">Create</text>
</g>
<!-- Translators -->
<g id="node2" class="node">
<title>Translators</title>
<polygon fill="none" stroke="#000000" points="0,-73.5 0,-123.1 197.5,-123.1 197.5,-73.5 0,-73.5"/>
<text text-anchor="middle" x="98.75" y="-106.5" font-family="Times,serif" font-size="14.00" fill="#000000">Translators</text>
<polyline fill="none" stroke="#000000" points="0,-98.3 197.5,-98.3 "/>
<text text-anchor="middle" x="17.3296" y="-81.7" font-family="Times,serif" font-size="14.00" fill="#000000">EN</text>
<polyline fill="none" stroke="#000000" points="34.6592,-73.5 34.6592,-98.3 "/>
<text text-anchor="middle" x="51.2188" y="-81.7" font-family="Times,serif" font-size="14.00" fill="#000000">FR</text>
<polyline fill="none" stroke="#000000" points="67.7784,-73.5 67.7784,-98.3 "/>
<text text-anchor="middle" x="83.946" y="-81.7" font-family="Times,serif" font-size="14.00" fill="#000000">ES</text>
<polyline fill="none" stroke="#000000" points="100.1136,-73.5 100.1136,-98.3 "/>
<text text-anchor="middle" x="117.8352" y="-81.7" font-family="Times,serif" font-size="14.00" fill="#000000">CO</text>
<polyline fill="none" stroke="#000000" points="135.5568,-73.5 135.5568,-98.3 "/>
<text text-anchor="middle" x="153.2784" y="-81.7" font-family="Times,serif" font-size="14.00" fill="#000000">AR</text>
<polyline fill="none" stroke="#000000" points="171,-73.5 171,-98.3 "/>
<text text-anchor="middle" x="184.25" y="-81.7" font-family="Times,serif" font-size="14.00" fill="#000000">...</text>
</g>
<!-- TF -->
<g id="node4" class="node">
<title>TF</title>
<ellipse fill="none" stroke="#000000" cx="230.75" cy="-18" rx="35.5583" ry="18"/>
<text text-anchor="middle" x="230.75" y="-15.6" font-family="Times,serif" font-size="8.00" fill="#000000">Translated file</text>
</g>
<!-- Translators&#45;&gt;TF -->
<g id="edge3" class="edge">
<title>Translators:en&#45;&gt;TF</title>
<path fill="none" stroke="#000000" d="M17.75,-73.3C17.75,-39.0096 122.4777,-25.6181 185.0633,-20.6768"/>
<polygon fill="#000000" stroke="#000000" points="185.3868,-24.1625 195.0986,-19.928 184.8658,-17.1819 185.3868,-24.1625"/>
</g>
<!-- Translators&#45;&gt;TF -->
<g id="edge4" class="edge">
<title>Translators:fr&#45;&gt;TF</title>
<path fill="none" stroke="#000000" d="M50.75,-73.3C50.75,-45.1216 132.3734,-29.8172 185.6904,-22.826"/>
<polygon fill="#000000" stroke="#000000" points="186.1323,-26.2981 195.6169,-21.5766 185.2581,-19.3529 186.1323,-26.2981"/>
</g>
<!-- Translators&#45;&gt;TF -->
<g id="edge5" class="edge">
<title>Translators:es&#45;&gt;TF</title>
<path fill="none" stroke="#000000" d="M83.75,-73.3C83.75,-51.086 143.2997,-34.7472 186.5953,-25.8038"/>
<polygon fill="#000000" stroke="#000000" points="187.5341,-29.1855 196.6558,-23.7962 186.1642,-22.3209 187.5341,-29.1855"/>
</g>
<!-- Translators&#45;&gt;TF -->
<g id="edge6" class="edge">
<title>Translators:co&#45;&gt;TF</title>
<path fill="none" stroke="#000000" d="M117.75,-73.3C117.75,-56.7723 157.2437,-40.4591 189.5348,-29.8832"/>
<polygon fill="#000000" stroke="#000000" points="190.8012,-33.1534 199.2732,-26.7913 188.6829,-26.4815 190.8012,-33.1534"/>
</g>
<!-- Translators&#45;&gt;TF -->
<g id="edge7" class="edge">
<title>Translators:ar&#45;&gt;TF</title>
<path fill="none" stroke="#000000" d="M153.75,-73.3C153.75,-53.0253 171.5797,-39.4581 190.0798,-30.8377"/>
<polygon fill="#000000" stroke="#000000" points="191.5838,-34.0019 199.4312,-26.8836 188.8576,-27.5545 191.5838,-34.0019"/>
</g>
<!-- TFReference&#45;&gt;Translators -->
<g id="edge2" class="edge">
<title>TFReference&#45;&gt;Translators:all</title>
<path fill="none" stroke="#000000" d="M119.5289,-168.9962C111.4383,-159.5236 102.9137,-146.9158 99.8924,-133.3324"/>
<polygon fill="#000000" stroke="#000000" points="103.359,-132.8398 98.75,-123.3 96.404,-133.6318 103.359,-132.8398"/>
<text text-anchor="middle" x="112.391" y="-143.7" font-family="Times,serif" font-size="7.00" fill="#000000">Pull</text>
</g>
<!-- TF&#45;&gt;Developer -->
<g id="edge8" class="edge">
<title>TF&#45;&gt;Developer</title>
<path fill="none" stroke="#000000" d="M218.3881,-35.2058C208.3632,-77.0492 220.1838,-184.6458 239.1836,-238.5824"/>
<polygon fill="#000000" stroke="#000000" points="235.9509,-239.9273 242.8112,-248.0012 242.4831,-237.4114 235.9509,-239.9273"/>
</g>
<!-- TF&#45;&gt;Developer -->
<g id="edge9" class="edge">
<title>TF&#45;&gt;Developer</title>
<path fill="none" stroke="#000000" d="M225.5891,-35.8583C223.316,-78.0825 235.7227,-184.5458 248.4451,-238.2967"/>
<polygon fill="#000000" stroke="#000000" points="245.0551,-239.1678 250.9051,-248.0012 251.8405,-237.4477 245.0551,-239.1678"/>
</g>
<!-- TF&#45;&gt;Developer -->
<g id="edge10" class="edge">
<title>TF&#45;&gt;Developer</title>
<path fill="none" stroke="#000000" d="M232.9839,-36.1884C238.1872,-78.5534 251.1724,-184.278 257.769,-237.9871"/>
<polygon fill="#000000" stroke="#000000" points="254.3059,-238.5025 258.999,-248.0012 261.2537,-237.6491 254.3059,-238.5025"/>
</g>
<!-- TF&#45;&gt;Developer -->
<g id="edge11" class="edge">
<title>TF&#45;&gt;Developer</title>
<path fill="none" stroke="#000000" d="M240.1992,-35.5307C252.843,-77.4355 266.6249,-183.9287 267.1655,-237.9345"/>
<polygon fill="#000000" stroke="#000000" points="263.6652,-237.9761 267.0929,-248.0012 270.6651,-238.0267 263.6652,-237.9761"/>
</g>
<!-- TF&#45;&gt;Developer -->
<g id="edge12" class="edge">
<title>TF&#45;&gt;Developer</title>
<path fill="none" stroke="#000000" d="M246.8662,-34.2467C267.3201,-75.1924 282.1589,-183.2292 276.5793,-237.8294"/>
<polygon fill="#000000" stroke="#000000" points="273.0756,-237.6188 275.1868,-248.0012 280.0109,-238.5684 273.0756,-237.6188"/>
</g>
</g>
</svg>
