<?xml version="1.0" encoding="UTF-8" standalone="no"?>
<!DOCTYPE svg PUBLIC "-//W3C//DTD SVG 1.1//EN"
 "http://www.w3.org/Graphics/SVG/1.1/DTD/svg11.dtd">
<!-- Generated by graphviz version 2.40.1 (20161225.0304)
 -->
<!-- Title: G Pages: 1 -->
<svg width="285pt" height="300pt"
 viewBox="0.00 0.00 284.50 300.40" xmlns="http://www.w3.org/2000/svg" xmlns:xlink="http://www.w3.org/1999/xlink">
<g id="graph0" class="graph" transform="scale(1 1) rotate(0) translate(4 296.4)">
<title>G</title>
<polygon fill="#ffffff" stroke="transparent" points="-4,4 -4,-296.4 280.503,-296.4 280.503,4 -4,4"/>
<!-- Developer -->
<g id="node1" class="node">
<title>Developer</title>
<polygon fill="none" stroke="#000000" stroke-width="2" points="272.4794,-262.9442 272.4794,-277.8558 239.997,-288.4 194.0598,-288.4 161.5774,-277.8558 161.5774,-262.9442 194.0598,-252.4 239.997,-252.4 272.4794,-262.9442"/>
<polygon fill="none" stroke="#000000" stroke-width="2" points="276.4777,-260.0367 276.4777,-280.7633 240.6294,-292.4 193.4274,-292.4 157.5791,-280.7633 157.5791,-260.0367 193.4274,-248.4 240.6294,-248.4 276.4777,-260.0367"/>
<text text-anchor="middle" x="217.0284" y="-266.2" font-family="Times,serif" font-size="14.00" fill="#000000">Developer</text>
</g>
<!-- TFReference -->
<g id="node3" class="node">
<title>TFReference</title>
<ellipse fill="none" stroke="#000000" cx="106.0284" cy="-186" rx="47.7559" ry="18"/>
<text text-anchor="middle" x="106.0284" y="-183.6" font-family="Times,serif" font-size="8.00" fill="#000000">Translation file Keys</text>
</g>
<!-- Developer&#45;&gt;TFReference -->
<g id="edge1" class="edge">
<title>Developer&#45;&gt;TFReference</title>
<path fill="none" stroke="#000000" d="M186.0994,-250.506C176.8305,-244.2839 166.7452,-237.2496 157.7626,-230.4 149.292,-223.9409 140.3832,-216.5356 132.3911,-209.6479"/>
<polygon fill="#000000" stroke="#000000" points="134.5915,-206.9228 124.7549,-202.9868 129.99,-212.1979 134.5915,-206.9228"/>
<text text-anchor="middle" x="167.1613" y="-224.1" font-family="Times,serif" font-size="7.00" fill="#000000">Create</text>
</g>
<!-- Translators -->
<g id="node2" class="node">
<title>Translators</title>
<polygon fill="none" stroke="#000000" points="0,-73.5 0,-123.1 162.0568,-123.1 162.0568,-73.5 0,-73.5"/>
<text text-anchor="middle" x="81.0284" y="-106.5" font-family="Times,serif" font-size="14.00" fill="#000000">Translators</text>
<polyline fill="none" stroke="#000000" points="0,-98.3 162.0568,-98.3 "/>
<text text-anchor="middle" x="17.3296" y="-81.7" font-family="Times,serif" font-size="14.00" fill="#000000">EN</text>
<polyline fill="none" stroke="#000000" points="34.6592,-73.5 34.6592,-98.3 "/>
<text text-anchor="middle" x="51.2188" y="-81.7" font-family="Times,serif" font-size="14.00" fill="#000000">FR</text>
<polyline fill="none" stroke="#000000" points="67.7784,-73.5 67.7784,-98.3 "/>
<text text-anchor="middle" x="83.946" y="-81.7" font-family="Times,serif" font-size="14.00" fill="#000000">ES</text>
<polyline fill="none" stroke="#000000" points="100.1136,-73.5 100.1136,-98.3 "/>
<text text-anchor="middle" x="117.8352" y="-81.7" font-family="Times,serif" font-size="14.00" fill="#000000">CO</text>
<polyline fill="none" stroke="#000000" points="135.5568,-73.5 135.5568,-98.3 "/>
<text text-anchor="middle" x="148.8068" y="-81.7" font-family="Times,serif" font-size="14.00" fill="#000000">...</text>
</g>
<!-- TF -->
<g id="node4" class="node">
<title>TF</title>
<ellipse fill="none" stroke="#000000" cx="190.0284" cy="-18" rx="35.5583" ry="18"/>
<text text-anchor="middle" x="190.0284" y="-15.6" font-family="Times,serif" font-size="8.00" fill="#000000">Translated file</text>
</g>
<!-- Translators&#45;&gt;TF -->
<g id="edge3" class="edge">
<title>Translators:en&#45;&gt;TF</title>
<path fill="none" stroke="#000000" d="M17.0284,-73.3C17.0284,-46.4554 93.5599,-30.8568 144.8183,-23.4199"/>
<polygon fill="#000000" stroke="#000000" points="145.5982,-26.8451 155.0193,-21.998 144.6318,-19.9121 145.5982,-26.8451"/>
</g>
<!-- Translators&#45;&gt;TF -->
<g id="edge4" class="edge">
<title>Translators:fr&#45;&gt;TF</title>
<path fill="none" stroke="#000000" d="M51.0284,-73.3C51.0284,-52.4258 105.8328,-35.9626 146.6167,-26.601"/>
<polygon fill="#000000" stroke="#000000" points="147.3776,-30.0174 156.3804,-24.4317 145.8593,-23.1841 147.3776,-30.0174"/>
</g>
<!-- Translators&#45;&gt;TF -->
<g id="edge5" class="edge">
<title>Translators:es&#45;&gt;TF</title>
<path fill="none" stroke="#000000" d="M84.0284,-73.3C84.0284,-44.0563 116.1338,-30.2516 145.0064,-23.7497"/>
<polygon fill="#000000" stroke="#000000" points="145.9093,-27.1384 155.0263,-21.7411 144.5334,-20.275 145.9093,-27.1384"/>
</g>
<!-- Translators&#45;&gt;TF -->
<g id="edge6" class="edge">
<title>Translators:co&#45;&gt;TF</title>
<path fill="none" stroke="#000000" d="M118.0284,-73.3C118.0284,-54.4158 133.7993,-41.095 150.579,-32.2663"/>
<polygon fill="#000000" stroke="#000000" points="152.3909,-35.28 159.9111,-27.8169 149.3783,-28.9614 152.3909,-35.28"/>
</g>
<!-- TFReference&#45;&gt;Translators -->
<g id="edge2" class="edge">
<title>TFReference&#45;&gt;Translators:all</title>
<path fill="none" stroke="#000000" d="M94.8446,-168.3583C89.5923,-158.751 84.0265,-146.247 81.9122,-133.5119"/>
<polygon fill="#000000" stroke="#000000" points="85.3777,-132.9609 81.0284,-123.3 78.4038,-133.5646 85.3777,-132.9609"/>
<text text-anchor="middle" x="91.6693" y="-143.7" font-family="Times,serif" font-size="7.00" fill="#000000">Pull</text>
</g>
<!-- TF&#45;&gt;Developer -->
<g id="edge7" class="edge">
<title>TF&#45;&gt;Developer</title>
<path fill="none" stroke="#000000" d="M180.9596,-35.5307C174.1827,-77.5228 184.5784,-184.3727 199.5443,-238.2714"/>
<polygon fill="#000000" stroke="#000000" points="196.2427,-239.4453 202.4915,-248.0012 202.9421,-237.4159 196.2427,-239.4453"/>
</g>
<!-- TF&#45;&gt;Developer -->
<g id="edge8" class="edge">
<title>TF&#45;&gt;Developer</title>
<path fill="none" stroke="#000000" d="M188.2679,-36.1884C189.1047,-78.5534 200.0836,-184.278 208.8626,-237.9871"/>
<polygon fill="#000000" stroke="#000000" points="205.4405,-238.7394 210.5854,-248.0012 212.3391,-237.5525 205.4405,-238.7394"/>
</g>
<!-- TF&#45;&gt;Developer -->
<g id="edge9" class="edge">
<title>TF&#45;&gt;Developer</title>
<path fill="none" stroke="#000000" d="M195.6159,-35.8583C203.8452,-77.9947 215.5369,-184.1034 218.2583,-237.9608"/>
<polygon fill="#000000" stroke="#000000" points="214.7633,-238.1566 218.6793,-248.0012 221.7572,-237.8633 214.7633,-238.1566"/>
</g>
<!-- TF&#45;&gt;Developer -->
<g id="edge10" class="edge">
<title>TF&#45;&gt;Developer</title>
<path fill="none" stroke="#000000" d="M202.6026,-34.8834C218.4413,-76.3151 231.0307,-183.5791 227.6632,-237.882"/>
<polygon fill="#000000" stroke="#000000" points="224.1629,-237.733 226.7732,-248.0012 231.136,-238.3463 224.1629,-237.733"/>
</g>
</g>
</svg>
