<?xml version="1.0" encoding="UTF-8" standalone="no"?>
<!DOCTYPE svg PUBLIC "-//W3C//DTD SVG 1.1//EN"
 "http://www.w3.org/Graphics/SVG/1.1/DTD/svg11.dtd">
<!-- Generated by graphviz version 2.40.1 (20161225.0304)
 -->
<!-- Title: G Pages: 1 -->
<svg width="200pt" height="300pt"
 viewBox="0.00 0.00 200.35 300.40" xmlns="http://www.w3.org/2000/svg" xmlns:xlink="http://www.w3.org/1999/xlink">
<g id="graph0" class="graph" transform="scale(1 1) rotate(0) translate(4 296.4)">
<title>G</title>
<polygon fill="#ffffff" stroke="transparent" points="-4,4 -4,-296.4 196.3524,-296.4 196.3524,4 -4,4"/>
<!-- Developer -->
<g id="node1" class="node">
<title>Developer</title>
<polygon fill="none" stroke="#000000" stroke-width="2" points="188.3288,-262.9442 188.3288,-277.8558 155.8463,-288.4 109.9092,-288.4 77.4268,-277.8558 77.4268,-262.9442 109.9092,-252.4 155.8463,-252.4 188.3288,-262.9442"/>
<polygon fill="none" stroke="#000000" stroke-width="2" points="192.3271,-260.0367 192.3271,-280.7633 156.4788,-292.4 109.2768,-292.4 73.4285,-280.7633 73.4285,-260.0367 109.2768,-248.4 156.4788,-248.4 192.3271,-260.0367"/>
<text text-anchor="middle" x="132.8778" y="-266.2" font-family="Times,serif" font-size="14.00" fill="#000000">Developer</text>
</g>
<!-- TFReference -->
<g id="node3" class="node">
<title>TFReference</title>
<ellipse fill="none" stroke="#000000" cx="47.8778" cy="-186" rx="47.7559" ry="18"/>
<text text-anchor="middle" x="47.8778" y="-183.6" font-family="Times,serif" font-size="8.00" fill="#000000">Translation file Keys</text>
</g>
<!-- Developer&#45;&gt;TFReference -->
<g id="edge1" class="edge">
<title>Developer&#45;&gt;TFReference</title>
<path fill="none" stroke="#000000" d="M109.6513,-248.0686C103.7417,-242.3367 97.4204,-236.162 91.612,-230.4 85.0972,-223.9373 78.0989,-216.8834 71.6525,-210.3395"/>
<polygon fill="#000000" stroke="#000000" points="73.9053,-207.6384 64.4005,-202.9577 68.9119,-212.5441 73.9053,-207.6384"/>
<text text-anchor="middle" x="101.0107" y="-224.1" font-family="Times,serif" font-size="7.00" fill="#000000">Create</text>
</g>
<!-- Translators -->
<g id="node2" class="node">
<title>Translators</title>
<polygon fill="none" stroke="#000000" points="1.7386,-73.5 1.7386,-123.1 96.017,-123.1 96.017,-73.5 1.7386,-73.5"/>
<text text-anchor="middle" x="48.8778" y="-106.5" font-family="Times,serif" font-size="14.00" fill="#000000">Translators</text>
<polyline fill="none" stroke="#000000" points="1.7386,-98.3 96.017,-98.3 "/>
<text text-anchor="middle" x="19.0682" y="-81.7" font-family="Times,serif" font-size="14.00" fill="#000000">EN</text>
<polyline fill="none" stroke="#000000" points="36.3978,-73.5 36.3978,-98.3 "/>
<text text-anchor="middle" x="52.9574" y="-81.7" font-family="Times,serif" font-size="14.00" fill="#000000">FR</text>
<polyline fill="none" stroke="#000000" points="69.517,-73.5 69.517,-98.3 "/>
<text text-anchor="middle" x="82.767" y="-81.7" font-family="Times,serif" font-size="14.00" fill="#000000">...</text>
</g>
<!-- TF -->
<g id="node4" class="node">
<title>TF</title>
<ellipse fill="none" stroke="#000000" cx="112.8778" cy="-18" rx="35.5583" ry="18"/>
<text text-anchor="middle" x="112.8778" y="-15.6" font-family="Times,serif" font-size="8.00" fill="#000000">Translated file</text>
</g>
<!-- Translators&#45;&gt;TF -->
<g id="edge3" class="edge">
<title>Translators:en&#45;&gt;TF</title>
<path fill="none" stroke="#000000" d="M18.8778,-73.3C18.8778,-47.8929 44.7047,-33.9272 69.2831,-26.3891"/>
<polygon fill="#000000" stroke="#000000" points="70.2379,-29.7565 78.9416,-23.7152 68.3703,-23.0102 70.2379,-29.7565"/>
</g>
<!-- Translators&#45;&gt;TF -->
<g id="edge4" class="edge">
<title>Translators:fr&#45;&gt;TF</title>
<path fill="none" stroke="#000000" d="M52.8778,-73.3C52.8778,-57.3797 64.4408,-44.78 77.4146,-35.6536"/>
<polygon fill="#000000" stroke="#000000" points="79.4853,-38.4843 86.0366,-30.1578 75.7227,-32.5815 79.4853,-38.4843"/>
</g>
<!-- TFReference&#45;&gt;Translators -->
<g id="edge2" class="edge">
<title>TFReference&#45;&gt;Translators:all</title>
<path fill="none" stroke="#000000" d="M48.3193,-167.8924C48.5286,-158.1092 48.7517,-145.565 48.8394,-133.3812"/>
<polygon fill="#000000" stroke="#000000" points="52.3395,-133.3133 48.8778,-123.3 45.3396,-133.2865 52.3395,-133.3133"/>
<text text-anchor="middle" x="54.5187" y="-143.7" font-family="Times,serif" font-size="7.00" fill="#000000">Pull</text>
</g>
<!-- TF&#45;&gt;Developer -->
<g id="edge5" class="edge">
<title>TF&#45;&gt;Developer</title>
<path fill="none" stroke="#000000" d="M110.6129,-36.1884C110.2747,-78.5534 118.3214,-184.278 125.6109,-237.9871"/>
<polygon fill="#000000" stroke="#000000" points="122.1635,-238.6036 127.056,-248.0012 129.0917,-237.6038 122.1635,-238.6036"/>
</g>
<!-- TF&#45;&gt;Developer -->
<g id="edge6" class="edge">
<title>TF&#45;&gt;Developer</title>
<path fill="none" stroke="#000000" d="M117.97,-35.8583C125.0307,-77.9947 133.7796,-184.1034 135.0073,-237.9608"/>
<polygon fill="#000000" stroke="#000000" points="131.5082,-238.0519 135.1499,-248.0012 138.5075,-237.9525 131.5082,-238.0519"/>
</g>
</g>
</svg>
