<?xml version="1.0" encoding="UTF-8" standalone="no"?>
<!DOCTYPE svg PUBLIC "-//W3C//DTD SVG 1.1//EN"
 "http://www.w3.org/Graphics/SVG/1.1/DTD/svg11.dtd">
<!-- Generated by graphviz version 2.40.1 (20161225.0304)
 -->
<!-- Title: G Pages: 1 -->
<svg width="240pt" height="300pt"
 viewBox="0.00 0.00 239.78 300.40" xmlns="http://www.w3.org/2000/svg" xmlns:xlink="http://www.w3.org/1999/xlink">
<g id="graph0" class="graph" transform="scale(1 1) rotate(0) translate(4 296.4)">
<title>G</title>
<polygon fill="#ffffff" stroke="transparent" points="-4,4 -4,-296.4 235.7814,-296.4 235.7814,4 -4,4"/>
<!-- Developer -->
<g id="node1" class="node">
<title>Developer</title>
<polygon fill="none" stroke="#000000" stroke-width="2" points="227.7578,-262.9442 227.7578,-277.8558 195.2754,-288.4 149.3382,-288.4 116.8558,-277.8558 116.8558,-262.9442 149.3382,-252.4 195.2754,-252.4 227.7578,-262.9442"/>
<polygon fill="none" stroke="#000000" stroke-width="2" points="231.7561,-260.0367 231.7561,-280.7633 195.9078,-292.4 148.7058,-292.4 112.8575,-280.7633 112.8575,-260.0367 148.7058,-248.4 195.9078,-248.4 231.7561,-260.0367"/>
<text text-anchor="middle" x="172.3068" y="-266.2" font-family="Times,serif" font-size="14.00" fill="#000000">Developer</text>
</g>
<!-- TFReference -->
<g id="node3" class="node">
<title>TFReference</title>
<ellipse fill="none" stroke="#000000" cx="74.3068" cy="-186" rx="47.7559" ry="18"/>
<text text-anchor="middle" x="74.3068" y="-183.6" font-family="Times,serif" font-size="8.00" fill="#000000">Translation file Keys</text>
</g>
<!-- Developer&#45;&gt;TFReference -->
<g id="edge1" class="edge">
<title>Developer&#45;&gt;TFReference</title>
<path fill="none" stroke="#000000" d="M145.1259,-249.3948C137.5558,-243.3769 129.3948,-236.7297 122.041,-230.4 114.4816,-223.8934 106.4702,-216.6051 99.2138,-209.8442"/>
<polygon fill="#000000" stroke="#000000" points="101.3773,-207.0744 91.6931,-202.7769 96.5836,-212.1756 101.3773,-207.0744"/>
<text text-anchor="middle" x="131.4397" y="-224.1" font-family="Times,serif" font-size="7.00" fill="#000000">Create</text>
</g>
<!-- Translators -->
<g id="node2" class="node">
<title>Translators</title>
<polygon fill="none" stroke="#000000" points="0,-73.5 0,-123.1 126.6136,-123.1 126.6136,-73.5 0,-73.5"/>
<text text-anchor="middle" x="63.3068" y="-106.5" font-family="Times,serif" font-size="14.00" fill="#000000">Translators</text>
<polyline fill="none" stroke="#000000" points="0,-98.3 126.6136,-98.3 "/>
<text text-anchor="middle" x="17.3296" y="-81.7" font-family="Times,serif" font-size="14.00" fill="#000000">EN</text>
<polyline fill="none" stroke="#000000" points="34.6592,-73.5 34.6592,-98.3 "/>
<text text-anchor="middle" x="51.2188" y="-81.7" font-family="Times,serif" font-size="14.00" fill="#000000">FR</text>
<polyline fill="none" stroke="#000000" points="67.7784,-73.5 67.7784,-98.3 "/>
<text text-anchor="middle" x="83.946" y="-81.7" font-family="Times,serif" font-size="14.00" fill="#000000">ES</text>
<polyline fill="none" stroke="#000000" points="100.1136,-73.5 100.1136,-98.3 "/>
<text text-anchor="middle" x="113.3636" y="-81.7" font-family="Times,serif" font-size="14.00" fill="#000000">...</text>
</g>
<!-- TF -->
<g id="node4" class="node">
<title>TF</title>
<ellipse fill="none" stroke="#000000" cx="150.3068" cy="-18" rx="35.5583" ry="18"/>
<text text-anchor="middle" x="150.3068" y="-15.6" font-family="Times,serif" font-size="8.00" fill="#000000">Translated file</text>
</g>
<!-- Translators&#45;&gt;TF -->
<g id="edge3" class="edge">
<title>Translators:en&#45;&gt;TF</title>
<path fill="none" stroke="#000000" d="M17.3068,-73.3C17.3068,-53.501 68.1937,-37.0372 107.0149,-27.3579"/>
<polygon fill="#000000" stroke="#000000" points="108.1879,-30.6755 117.0884,-24.9281 106.5464,-23.8706 108.1879,-30.6755"/>
</g>
<!-- Translators&#45;&gt;TF -->
<g id="edge4" class="edge">
<title>Translators:fr&#45;&gt;TF</title>
<path fill="none" stroke="#000000" d="M51.3068,-73.3C51.3068,-46.4163 79.4756,-32.4783 105.7618,-25.3245"/>
<polygon fill="#000000" stroke="#000000" points="106.7972,-28.6745 115.6814,-22.902 105.1365,-21.8744 106.7972,-28.6745"/>
</g>
<!-- Translators&#45;&gt;TF -->
<g id="edge5" class="edge">
<title>Translators:es&#45;&gt;TF</title>
<path fill="none" stroke="#000000" d="M84.3068,-73.3C84.3068,-55.9302 97.9037,-42.9357 112.7546,-33.9231"/>
<polygon fill="#000000" stroke="#000000" points="114.4829,-36.9671 121.5502,-29.0738 111.1031,-30.837 114.4829,-36.9671"/>
</g>
<!-- TFReference&#45;&gt;Translators -->
<g id="edge2" class="edge">
<title>TFReference&#45;&gt;Translators:all</title>
<path fill="none" stroke="#000000" d="M69.45,-168.0374C67.1479,-158.3048 64.6933,-145.7825 63.7296,-133.4973"/>
<polygon fill="#000000" stroke="#000000" points="67.2181,-133.1464 63.3068,-123.3 60.2242,-133.4364 67.2181,-133.1464"/>
<text text-anchor="middle" x="71.9478" y="-143.7" font-family="Times,serif" font-size="7.00" fill="#000000">Pull</text>
</g>
<!-- TF&#45;&gt;Developer -->
<g id="edge6" class="edge">
<title>TF&#45;&gt;Developer</title>
<path fill="none" stroke="#000000" d="M144.5091,-35.8583C140.7382,-77.9947 149.3051,-184.1034 160.0793,-237.9608"/>
<polygon fill="#000000" stroke="#000000" points="156.7173,-238.9722 162.2605,-248.0012 163.5577,-237.4861 156.7173,-238.9722"/>
</g>
<!-- TF&#45;&gt;Developer -->
<g id="edge7" class="edge">
<title>TF&#45;&gt;Developer</title>
<path fill="none" stroke="#000000" d="M151.8922,-36.1884C155.5848,-78.5534 164.8001,-184.278 169.4816,-237.9871"/>
<polygon fill="#000000" stroke="#000000" points="165.9992,-238.3429 170.3544,-248.0012 172.9728,-237.735 165.9992,-238.3429"/>
</g>
<!-- TF&#45;&gt;Developer -->
<g id="edge8" class="edge">
<title>TF&#45;&gt;Developer</title>
<path fill="none" stroke="#000000" d="M159.1309,-35.5307C170.2805,-77.4355 180.2651,-183.9287 178.88,-237.9345"/>
<polygon fill="#000000" stroke="#000000" points="175.38,-237.8604 178.4483,-248.0012 182.3736,-238.1603 175.38,-237.8604"/>
</g>
</g>
</svg>
